<?xml version="1.0" ?><svg width="64px" height="64px" viewBox="0 0 64 64" data-name="Layer 1" id="Layer_1" xmlns="http://www.w3.org/2000/svg"><rect height="16" width="16" x="22" y="44"/><polygon points="40 56.288 42 51.788 42 39.236 40 43.236 40 56.288"/><polygon points="25.618 36 22.618 42 38.382 42 41.382 36 25.618 36"/><path d="M50,30h-.61a1,1,0,0,1-.943-.666,9.486,9.486,0,0,0-17.573-.795,1,1,0,0,1-1.619.285A9.5,9.5,0,0,0,13,35.5V39a1,1,0,0,1-1,1H9A5,5,0,0,0,9,50H20V43a.978.978,0,0,1,.115-.443l-.01,0,4-8A1,1,0,0,1,25,34H43A.988.988,0,0,1,44,35H44V50h6a10,10,0,0,0,0-20Zm6,13H54V41h2Zm-2-4a4,4,0,0,0-4-4V33a6.006,6.006,0,0,1,6,6Z"/><path d="M32,19a1,1,0,0,0,.555-.168l6-4-1.11-1.664L33,16.132V2H31V16.132l-4.445-2.964-1.11,1.664,6,4A1,1,0,0,0,32,19Z"/><path d="M9,19a1,1,0,0,0,.555-.168l6-4-1.11-1.664L10,16.132V2H8V16.132L3.555,13.168l-1.11,1.664,6,4A1,1,0,0,0,9,19Z"/><path d="M55,19a1,1,0,0,0,.555-.168l6-4-1.11-1.664L56,16.132V2H54V16.132l-4.445-2.964-1.11,1.664,6,4A1,1,0,0,0,55,19Z"/></svg>