<?xml version="1.0" ?><svg width="64px" height="64px" viewBox="0 0 64 64" data-name="Layer 1" id="Layer_1" xmlns="http://www.w3.org/2000/svg"><path d="M23,43.428V48c.151.54,3.15,2,9,2s8.839-1.455,9-2.012v-4.56C38.872,44.5,35.357,45,32,45S25.128,44.5,23,43.428ZM33,49H31V47h2Z"/><path d="M41,27c-.2-.566-3.2-2-9-2-5.841,0-8.839,1.455-9,2.012v.006c.161.526,3.159,1.982,9,1.982C37.8,29,40.8,27.566,41,27Z"/><path d="M9,31H21V27c0-2.748,5.7-4,11-4s11,1.252,11,4v4h7a10,10,0,0,0,0-20h-.61a1,1,0,0,1-.943-.666,9.486,9.486,0,0,0-17.573-.795,1,1,0,0,1-1.619.285A9.5,9.5,0,0,0,13,16.5V20a1,1,0,0,1-1,1H9A5,5,0,0,0,9,31Zm47-7H54V22h2ZM50,14a6.006,6.006,0,0,1,6,6H54a4,4,0,0,0-4-4Z"/><path d="M41,36.428C38.872,37.495,35.357,38,32,38s-6.872-.505-9-1.572V41c.151.54,3.15,2,9,2s8.839-1.455,9-2.012ZM33,42H31V40h2Z"/><path d="M41,29.428C38.872,30.5,35.357,31,32,31s-6.872-.5-9-1.572V34c.151.54,3.15,2,9,2s8.839-1.455,9-2.012ZM33,35H31V33h2Z"/><path d="M62,57H35.858A4,4,0,0,0,33,54.142V51H31v3.142A4,4,0,0,0,28.142,57H2v2H28.142a3.981,3.981,0,0,0,7.716,0H62ZM32,60a2,2,0,1,1,2-2A2,2,0,0,1,32,60Z"/></svg>